<svg id="SvgjsSvg1017" width="288" height="288" xmlns="http://www.w3.org/2000/svg" version="1.1" xmlns:xlink="http://www.w3.org/1999/xlink" xmlns:svgjs="http://svgjs.com/svgjs"><defs id="SvgjsDefs1018"></defs><g id="SvgjsG1019"><svg xmlns="http://www.w3.org/2000/svg" width="288" height="288" enable-background="new 0 0 32 28" viewBox="0 0 32 28"><path fill="#2d6cdf" d="M16,4c0,0-4-4-16-4v24c12.125,0,16,4,16,4s3.875-4,16-4V0C20,0,16,4,16,4z M4,4   c5.084,0.426,8.203,1.602,10,2.555v16.109c-1.797-0.949-4.916-2.125-10-2.555V4z M28,20.109c-5.086,0.43-8.205,1.605-10,2.555   V6.555C19.795,5.602,22.914,4.426,28,4V20.109z" class="color4e4e50 svgShape"></path></svg></g></svg>