<svg id="SvgjsSvg1082" width="288" height="288" xmlns="http://www.w3.org/2000/svg" version="1.1" xmlns:xlink="http://www.w3.org/1999/xlink" xmlns:svgjs="http://svgjs.com/svgjs"><defs id="SvgjsDefs1083"></defs><g id="SvgjsG1084"><svg xmlns="http://www.w3.org/2000/svg" width="288" height="288" version="1" viewBox="0 0 32 32"><path d="M 16 0 C 7.1641789 -2.3684758e-015 0 7.1641791 0 16 C -2.3684758e-015 24.835821 7.1641789 32 16 32 C 24.835821 32 32 24.835821 32 16 C 32 7.1641791 24.835821 0 16 0 z M 10.927734 9.0214844 L 11.007812 9.0214844 C 10.992274 9.0214844 10.98298 9.0279883 10.96875 9.0292969 C 11.592131 9.0507254 12.056641 9.5196487 12.056641 10.150391 C 12.056641 10.795864 11.573208 11.279297 10.927734 11.279297 L 10.847656 11.279297 C 10.605604 11.279297 10.363281 11.521619 10.363281 11.763672 C 10.363281 12.005724 10.605604 12.248047 10.847656 12.248047 L 10.927734 12.248047 C 11.573208 12.248047 12.056641 12.73148 12.056641 13.376953 C 12.056641 14.022426 11.573208 14.507812 10.927734 14.507812 C 10.766366 14.507812 10.605469 14.346915 10.605469 14.185547 C 10.605469 14.024179 10.766366 13.861328 10.927734 13.861328 C 11.169787 13.861328 11.412109 13.619005 11.412109 13.376953 C 11.412109 13.134901 11.249864 12.894531 11.007812 12.894531 C 10.362337 12.894531 9.8789062 12.409146 9.8789062 11.763672 C 9.8789063 11.198884 10.362338 10.634766 11.007812 10.634766 L 11.089844 10.634766 C 11.331896 10.634766 11.572266 10.392444 11.572266 10.150391 C 11.572266 9.9083373 11.331896 9.6660156 11.089844 9.6660156 C 10.928474 9.7466996 10.685547 9.5851976 10.685547 9.4238281 C 10.685547 9.1973149 10.761313 9.0483735 10.96875 9.0292969 C 10.954191 9.0287964 10.942466 9.0214844 10.927734 9.0214844 z M 14.074219 9.0214844 C 14.074219 9.0214844 14.155638 9.0208785 14.236328 9.1015625 C 14.881802 9.1015625 15.365234 9.5849965 15.365234 10.230469 C 15.365234 10.875944 14.881802 11.361328 14.236328 11.361328 L 14.154297 11.361328 L 14.074219 11.361328 C 13.832166 11.361328 13.589844 11.603651 13.589844 11.845703 C 13.589844 12.087756 13.832166 12.328125 14.074219 12.328125 L 14.154297 12.328125 C 14.79977 12.328125 15.285156 12.813511 15.285156 13.458984 C 15.285156 14.104458 14.79977 14.587891 14.154297 14.587891 C 13.992927 14.587891 13.832031 14.426994 13.832031 14.265625 C 13.832031 14.104258 13.992927 13.943359 14.154297 13.943359 C 14.396348 13.943359 14.638672 13.701036 14.638672 13.458984 C 14.638672 13.216931 14.396348 12.974609 14.154297 12.974609 C 13.508823 12.974609 13.025391 12.491176 13.025391 11.845703 C 13.025391 11.280914 13.589508 10.714844 14.154297 10.714844 L 14.236328 10.714844 L 14.316406 10.714844 C 14.558459 10.714844 14.720703 10.472523 14.720703 10.230469 C 14.720703 9.9884164 14.478381 9.7460938 14.236328 9.7460938 C 13.994275 9.7460938 13.832031 9.5851976 13.832031 9.4238281 C 13.751348 9.2624608 13.912852 9.0214844 14.074219 9.0214844 z M 17.300781 9.0214844 C 17.300781 9.0214844 17.382201 9.0208785 17.462891 9.1015625 C 18.108363 9.1015625 18.591797 9.5849965 18.591797 10.230469 C 18.591797 10.875944 18.108363 11.361328 17.462891 11.361328 L 17.382812 11.361328 L 17.300781 11.361328 C 17.058727 11.361328 16.818359 11.603651 16.818359 11.845703 C 16.818359 12.087756 17.058727 12.328125 17.300781 12.328125 L 17.382812 12.328125 C 18.028284 12.328125 18.511719 12.813511 18.511719 13.458984 C 18.511719 14.104458 18.028285 14.587891 17.382812 14.587891 C 17.221445 14.587891 17.060547 14.426994 17.060547 14.265625 C 17.060547 14.104258 17.221445 13.943359 17.382812 13.943359 C 17.624864 13.943359 17.867188 13.701036 17.867188 13.458984 C 17.867187 13.216931 17.624864 12.974609 17.382812 12.974609 C 16.73734 12.974609 16.251953 12.491176 16.251953 11.845703 C 16.251953 11.280914 16.818023 10.714844 17.382812 10.714844 L 17.462891 10.714844 C 17.704942 10.714844 17.947266 10.472523 17.947266 10.230469 C 17.947266 9.9884164 17.704942 9.7460938 17.462891 9.7460938 C 17.220838 9.7460938 17.060547 9.5851976 17.060547 9.4238281 C 16.979864 9.2624608 17.139412 9.0214844 17.300781 9.0214844 z M 23.755859 9.5859375 C 24.320648 9.5859375 24.724744 9.98855 24.966797 10.472656 C 25.208849 10.95676 25.369141 11.521754 25.369141 12.005859 C 25.369141 12.893384 24.806236 13.619883 24.080078 13.78125 C 24.806242 16.040409 24.563241 18.138539 24.724609 20.236328 L 24.724609 20.316406 C 24.724609 20.961878 24.239964 21.365234 23.755859 21.365234 C 23.271755 21.365234 22.789062 20.961878 22.789062 20.316406 L 22.789062 20.236328 C 22.95043 18.138539 22.78812 15.798356 23.433594 13.78125 C 22.707437 13.619883 22.142578 12.893384 22.142578 12.005859 C 22.142578 11.521754 22.304823 10.95676 22.546875 10.472656 C 22.788927 9.9885499 23.19107 9.5859375 23.755859 9.5859375 z M 6.8925781 15.314453 L 21.740234 15.314453 C 21.98228 15.314453 22.14319 15.555428 22.0625 15.716797 C 21.417026 18.137321 19.72279 19.994682 17.625 20.962891 L 17.625 22.65625 C 17.625 22.817618 17.462149 22.978516 17.300781 22.978516 L 11.492188 22.978516 C 11.330821 22.978516 11.169922 22.817618 11.169922 22.65625 L 11.169922 21.042969 L 11.169922 20.962891 C 8.9107653 19.994681 7.2978169 18.056637 6.6523438 15.716797 C 6.5716595 15.555427 6.7312098 15.314453 6.8925781 15.314453 z " fill="#2d6cdf" class="color000 svgShape"></path></svg></g></svg>