<svg xmlns="http://www.w3.org/2000/svg" id="Layer_1" x="0" y="0" version="1.1" viewBox="0 0 52 52" xml:space="preserve"><path fill="#0096e6" d="M44.003 19.37v30.82h-36V19.37c0-.27.11-.53.29-.71s.44-.29.71-.29c.55 0 1 .45 1 1v28.82h32V19.37c0-.55.45-1 1-1 .27 0 .53.11.71.29s.29.44.29.71z"/><path fill="#0096e6" d="M49.723 25.77c-.19.2-.46.31-.72.31-.25 0-.5-.09-.69-.28l-4.31-4.1-2-1.9-16-15.23-16 15.23-2 1.9-4.31 4.1c-.4.38-1.04.37-1.42-.03-.38-.4-.36-1.04.04-1.42l5.98-5.69 17.71-16.85 17.71 16.85 5.98 5.69c.4.38.41 1.02.03 1.42zM16.713 32.17v18.02h14V32.17h-14zm2 16.02V34.17h10v14.02h-10z"/><path fill="#fff" d="M18.713 34.17h10v14.02h-10z"/><path fill="#d0e8f9" d="M42.003 19.8v28.39h-11.29V32.17h-14v16.02h-6.71V19.8l16-15.23z"/></svg>