<svg id="SvgjsSvg1028" width="288" height="288" xmlns="http://www.w3.org/2000/svg" version="1.1" xmlns:xlink="http://www.w3.org/1999/xlink" xmlns:svgjs="http://svgjs.com/svgjs"><defs id="SvgjsDefs1029"></defs><g id="SvgjsG1030"><svg xmlns="http://www.w3.org/2000/svg" width="288" height="288" viewBox="0 0 24 24"><path d="M 5.0722656 0 C 2.2623763 0 0 2.2623763 0 5.0722656 L 0 18.927734 C 0 21.737624 2.2623763 24 5.0722656 24 L 18.927734 24 C 21.737624 24 24 21.737624 24 18.927734 L 24 5.0722656 C 24 2.2623763 21.737624 0 18.927734 0 L 5.0722656 0 z M 11.5 3.9980469 L 12.5 3.9980469 L 12.5 4.9980469 L 11.5 4.9980469 L 11.5 3.9980469 z M 7.4042969 5.6933594 L 8.1113281 6.4003906 L 7.4042969 7.1074219 L 6.6972656 6.4003906 L 7.4042969 5.6933594 z M 16.595703 5.6933594 L 17.302734 6.4003906 L 16.595703 7.1074219 L 15.888672 6.4003906 L 16.595703 5.6933594 z M 12.027344 5.9960938 C 14.75961 5.9960938 17.019531 8.0773812 17.019531 10.675781 C 17.019531 12.448581 16.175555 13.667384 15.404297 14.583984 C 15.018668 15.042184 14.651536 15.437163 14.400391 15.789062 C 14.149245 16.141063 14.025391 16.427038 14.025391 16.710938 L 14.025391 18.53125 L 14.025391 20.001953 L 12.464844 20.001953 L 11.496094 20.001953 L 10.029297 20.001953 L 10.029297 18.515625 L 10.029297 16.712891 C 10.029297 16.428991 9.9071263 16.146475 9.65625 15.796875 C 9.4053737 15.447275 9.0363171 15.054356 8.6503906 14.597656 C 7.8785378 13.684056 7.0351562 12.461781 7.0351562 10.675781 C 7.0351563 8.0774813 9.2950767 5.9980469 12.027344 5.9980469 L 12.027344 5.9960938 z M 12.027344 6.9941406 C 9.797826 6.9941406 8.0351562 8.6563281 8.0351562 10.673828 C 8.0351562 12.154028 8.6885647 13.090519 9.4140625 13.949219 C 9.7768114 14.378519 10.15812 14.776184 10.46875 15.208984 C 10.77938 15.641784 11.029297 16.134384 11.029297 16.708984 L 11.029297 17.15625 A 0.50004997 0.50004997 0 0 1 11.066406 17.15625 L 11.5 17.15625 L 11.5 12.994141 L 11 12.994141 L 11 11.994141 L 13 11.994141 L 13 12.994141 L 12.5 12.994141 L 12.5 17.15625 L 12.933594 17.15625 A 0.50004997 0.50004997 0 0 1 13.025391 17.167969 L 13.025391 16.710938 C 13.025391 16.136338 13.275576 15.643884 13.585938 15.208984 C 13.896299 14.773984 14.275626 14.374759 14.638672 13.943359 C 15.364764 13.080559 16.019531 12.140281 16.019531 10.675781 C 16.019531 8.6583813 14.25686 6.9980469 12.027344 6.9980469 L 12.027344 6.9941406 z M 5 9.9980469 L 6 9.9980469 L 6 10.998047 L 5 10.998047 L 5 9.9980469 z M 18 9.9980469 L 19 9.9980469 L 19 10.998047 L 18 10.998047 L 18 9.9980469 z M 13.025391 18.146484 A 0.50004997 0.50004997 0 0 1 12.933594 18.15625 L 11.066406 18.15625 A 0.50004997 0.50004997 0 0 1 11.03125 18.15625 A 0.50004997 0.50004997 0 0 0 11.029297 18.15625 L 11.029297 18.515625 L 11.029297 19.001953 L 11.496094 19.001953 L 12.464844 19.001953 L 13.025391 19.001953 L 13.025391 18.53125 L 13.025391 18.150391 L 13.025391 18.146484 z " fill="#2d6cdf" class="color000 svgShape"></path></svg></g></svg>