<svg id="SvgjsSvg1033" width="288" height="288" xmlns="http://www.w3.org/2000/svg" version="1.1" xmlns:xlink="http://www.w3.org/1999/xlink" xmlns:svgjs="http://svgjs.com/svgjs"><defs id="SvgjsDefs1034"></defs><g id="SvgjsG1035"><svg xmlns="http://www.w3.org/2000/svg" xmlns:xlink="http://www.w3.org/1999/xlink" data-name="Layer 1" viewBox="0 0 512 512" width="288" height="288"><defs><linearGradient id="a" x1="378.366" x2="378.366" y1="6.71" y2="499.673" gradientUnits="userSpaceOnUse"><stop offset="0" stop-color="#482ff7" class="stopColor00efd1 svgShape"></stop><stop offset="1" stop-color="#46c3db" class="stopColor00acea svgShape"></stop></linearGradient><linearGradient id="b" x1="378.5" x2="378.5" y1="6.71" y2="499.673" xlink:href="#a"></linearGradient><linearGradient id="c" x1="256.026" x2="256.026" y1="6.71" y2="499.673" xlink:href="#a"></linearGradient></defs><g data-name="&amp;lt;Group&amp;gt;" fill="#2d6cdf" class="color000 svgShape"><path fill="url(#a)" d="M378.366,349.2a35.607,35.607,0,1,0-35.607-35.607A35.648,35.648,0,0,0,378.366,349.2Zm0-55.214a19.607,19.607,0,1,1-19.607,19.607A19.63,19.63,0,0,1,378.366,293.984Z" data-name="&amp;lt;Compound Path&amp;gt;"></path><path fill="url(#b)" d="M405.068,349h0a8.175,8.175,0,0,0-6.446,3.435,25.5,25.5,0,0,1-5.371,5.457,25.183,25.183,0,0,1-35.133-5.5A8.122,8.122,0,0,0,351.668,349h0C333.562,349,319,364.089,319,382.193v37.772A7.889,7.889,0,0,0,326.833,428H429.9a8.116,8.116,0,0,0,8.1-8.035V382.193C438,364.089,423.171,349,405.068,349ZM422,412H335V382.193a16.8,16.8,0,0,1,13.3-16.488,41.227,41.227,0,0,0,60.294,0A16.9,16.9,0,0,1,422,382.193Z" data-name="&amp;lt;Compound Path&amp;gt;"></path><path fill="url(#c)" d="M432,260.763V228h16.027A7.769,7.769,0,0,0,456,220.248V153.725C456,125.414,434.226,102,407.427,102H318V88.726C318,60.415,296.476,37,269.677,37h-69.23C173.648,37,152,60.415,152,88.726V102H68.591C41.793,102,20,125.414,20,153.725v66.523A7.785,7.785,0,0,0,27.991,228H44V352.509C44,380.82,65.9,404,92.7,404H273.13c16.958,41,57.737,70.691,105.236,70.691A113.688,113.688,0,0,0,432,260.763ZM168,88.726C168,69.237,182.472,53,200.447,53h69.23C287.652,53,302,69.237,302,88.726V102H168Zm-132,65C36,134.236,50.615,118,68.591,118H407.427C425.4,118,440,134.236,440,153.725V212H290V183.309A8.56,8.56,0,0,0,281.666,175H187.92a8.2,8.2,0,0,0-7.92,8.309V212H36ZM274,191v58H196V191ZM92.7,388C74.721,388,60,372,60,352.509V228H180v29.186A7.776,7.776,0,0,0,187.92,265h93.746c4.418,0,8.334-3.4,8.334-7.814V228H416v25.714a114.448,114.448,0,0,0-37.591-6.382c-62.663,0-113.664,51.053-113.664,113.716a116.56,116.56,0,0,0,3.2,26.952Zm285.67,70.618a97.643,97.643,0,1,1,97.643-97.643A97.753,97.753,0,0,1,378.366,458.618Z" data-name="&amp;lt;Compound Path&amp;gt;"></path></g></svg></g></svg>