<svg id="SvgjsSvg1053" width="288" height="288" xmlns="http://www.w3.org/2000/svg" version="1.1" xmlns:xlink="http://www.w3.org/1999/xlink" xmlns:svgjs="http://svgjs.com/svgjs"><defs id="SvgjsDefs1054"></defs><g id="SvgjsG1055"><svg xmlns="http://www.w3.org/2000/svg" fill-rule="evenodd" stroke-linejoin="round" stroke-miterlimit="2" clip-rule="evenodd" viewBox="0 0 64 64" width="288" height="288"><path d="M38.273 9.867c-1.995-.564-4.099-.867-6.273-.867-12.694 0-23 10.306-23 23 0 1.588.161 3.139.469 4.637 0 0-1.818 1.05-1.818 1.05-.426-1.827-.651-3.731-.651-5.687 0-13.798 11.202-25 25-25 6.464 0 12.358 2.459 16.797 6.49.322.292.796.343 1.172.126l1.531-.884c0 0 0 6.928 0 6.928 0 0-6-3.464-6-3.464 0 0 .798-.461.798-.461.286-.165.472-.459.497-.788.026-.329-.112-.649-.369-.856-1.524-1.23-3.208-2.269-5.016-3.081-.504-.226-1.096-.001-1.322.502-.226.503-.001 1.096.502 1.322 1.196.538 2.333 1.184 3.398 1.926 0 0-.988.57-.988.57-.309.179-.5.509-.5.866 0 .357.191.688.5.866l9 5.196c.309.179.691.179 1 0 .309-.178.5-.508.5-.866l0-10.392c0-.357-.191-.687-.5-.866-.309-.179-.691-.179-1 0l-2.408 1.39c-4.726-4.065-10.874-6.524-17.592-6.524-14.902 0-27 12.098-27 27 0 2.597.368 5.11 1.053 7.486.086.295.302.535.587.65.286.115.608.093.874-.061l3.59-2.073c.383-.221.576-.668.472-1.099-.377-1.574-.576-3.215-.576-4.903 0-11.59 9.41-21 21-21 1.985 0 3.907.276 5.727.792.531.15 1.085-.159 1.235-.69.151-.531-.158-1.084-.689-1.235zM20.339 54.116c-1.923-1.017-3.698-2.278-5.284-3.741-.321-.297-.799-.35-1.178-.132l-1.588.917c0 0 0-6.928 0-6.928 0 0 6 3.464 6 3.464 0 0-.752.434-.752.434-.284.164-.47.457-.497.784-.027.327.108.646.362.855 3.972 3.268 9.057 5.231 14.598 5.231 12.694 0 23-10.306 23-23 0-1.588-.161-3.139-.469-4.637 0 0 1.818-1.05 1.818-1.05.426 1.827.651 3.731.651 5.687 0 13.798-11.202 25-25 25-2.193 0-4.32-.283-6.347-.814-.534-.14-1.081.18-1.22.714-.14.534.18 1.081.713 1.221 2.189.573 4.486.879 6.854.879 14.902 0 27-12.098 27-27 0-2.597-.368-5.11-1.053-7.486-.086-.295-.302-.535-.587-.65-.286-.115-.608-.093-.874.061l-3.59 2.073c-.383.221-.576.668-.472 1.099.377 1.574.576 3.215.576 4.903 0 11.59-9.41 21-21 21-4.533 0-8.733-1.44-12.167-3.886.001 0 .956-.552.956-.552.309-.178.5-.509.5-.866 0-.357-.191-.687-.5-.866l-9-5.196c-.309-.179-.691-.179-1 0-.309.179-.5.509-.5.866l0 10.392c0 .358.191.688.5.866.309.179.691.179 1 0l2.46-1.42c1.569 1.371 3.298 2.564 5.156 3.546.487.258 1.093.071 1.351-.417.258-.487.071-1.093-.417-1.351z" fill="#2d6cdf" class="color000 svgShape"></path><circle cx="22.579" cy="56.227" r="1" fill="#2d6cdf" class="color000 svgShape"></circle></svg></g></svg>