<svg id="SvgjsSvg1022" width="288" height="288" xmlns="http://www.w3.org/2000/svg" version="1.1" xmlns:xlink="http://www.w3.org/1999/xlink" xmlns:svgjs="http://svgjs.com/svgjs"><defs id="SvgjsDefs1023"></defs><g id="SvgjsG1024"><svg xmlns="http://www.w3.org/2000/svg" data-name="Layer 2" viewBox="0 0 32 32" width="288" height="288"><path d="M25,2.5H7A4.46,4.46,0,0,0,2.5,7V25A4.46,4.46,0,0,0,7,29.5H25A4.46,4.46,0,0,0,29.5,25V7A4.46,4.46,0,0,0,25,2.5ZM28.5,7V7.5H26.21l2-2A3.44,3.44,0,0,1,28.5,7Zm-.88-2.28L24.79,7.5H21.21l4-4A3.42,3.42,0,0,1,27.62,4.68ZM16.21,7.5l4-4h3.58l-4,4Zm-5,0,4-4h3.58l-4,4Zm-5,0,4-4h3.58l-4,4ZM7,3.5H8.79l-4,4H3.5V7A3.46,3.46,0,0,1,7,3.5ZM25,28.5H7A3.46,3.46,0,0,1,3.5,25V8.5h25V25A3.46,3.46,0,0,1,25,28.5Z" fill="#2d6cdf" class="color000 svgShape"></path><path d="M6.85 26.5A1.49 1.49 0 0 1 5.36 25V16.79a.5.5 0 0 0-.5-.5.5.5 0 0 0-.5.5V25A2.49 2.49 0 0 0 6.85 27.5a.5.5 0 1 0 0-1zM9.5 26.5H8.57a.5.5 0 0 0 0 1H9.5a.5.5 0 0 0 0-1zM20.77 16.5L14 12.34a1.53 1.53 0 0 0-2.33 1.31V22a1.54 1.54 0 0 0 1.54 1.54 1.42 1.42 0 0 0 .79-.23l6.81-4.15a1.54 1.54 0 0 0 0-2.62zm-.53 1.76l-6.8 4.16a.51.51 0 0 1-.54 0 .53.53 0 0 1-.27-.47V13.65a.51.51 0 0 1 .27-.46.55.55 0 0 1 .27-.07.51.51 0 0 1 .27.08l6.8 4.15a.54.54 0 0 1 .26.46A.5.5 0 0 1 20.24 18.26z" fill="#2d6cdf" class="color000 svgShape"></path></svg></g></svg>